HIERARCHY
ROOT Hips
{
	OFFSET	0	0	0
	CHANNELS 6  Xposition Yposition Zposition Xrotation Yrotation Zrotation
	JOINT Spine
	{
		OFFSET	0	7.06441	1.42252
		CHANNELS 3  Xrotation Yrotation Zrotation
		JOINT Spine1
		{
			OFFSET	0	12.1312	-2.16628
			CHANNELS 3  Xrotation Yrotation Zrotation
			JOINT Spine2
			{
				OFFSET	0	9.19586	0.985658
				CHANNELS 3  Xrotation Yrotation Zrotation
				JOINT Spine3
				{
					OFFSET	0	11.0047	3.27108
					CHANNELS 3  Xrotation Yrotation Zrotation
					JOINT Spine4
					{
						OFFSET	0	16.2904	-1.66804
						CHANNELS 3  Xrotation Yrotation Zrotation
						JOINT Neck
						{
							OFFSET	0	7.77695	-5.4482
							CHANNELS 3  Xrotation Yrotation Zrotation
							JOINT Head
							{
								OFFSET	0	9.33667	-2.7945
								CHANNELS 3  Xrotation Yrotation Zrotation
								End Site
								{
									OFFSET	0	19.4749	-0.942332
								}
							}
						}
					}
					JOINT LeftShoulder
					{
						OFFSET	-4.67917	19.7998	-9.33667
						CHANNELS 3  Xrotation Yrotation Zrotation
						JOINT LeftArm
						{
							OFFSET	-10.2118	-2.7945	3.58522
							CHANNELS 3  Xrotation Yrotation Zrotation
							JOINT LeftForeArm
							{
								OFFSET	-34.1503	-1.55868	2.43761
								CHANNELS 3  Xrotation Yrotation Zrotation
								JOINT LeftHand
								{
									OFFSET	-28.0847	-1.94081	2.00465
									CHANNELS 3  Xrotation Yrotation Zrotation
									End Site
									{
										OFFSET	-10.2495	-0.708301	0.731552
									}
								}
							}
						}
					}
					JOINT RightShoulder
					{
						OFFSET	4.67917	19.7998	-9.33667
						CHANNELS 3  Xrotation Yrotation Zrotation
						JOINT RightArm
						{
							OFFSET	10.2118	-2.7945	3.58522
							CHANNELS 3  Xrotation Yrotation Zrotation
							JOINT RightForeArm
							{
								OFFSET	34.1503	-1.55868	2.43761
								CHANNELS 3  Xrotation Yrotation Zrotation
								JOINT RightHand
								{
									OFFSET	28.0847	-1.94081	2.00465
									CHANNELS 3  Xrotation Yrotation Zrotation
									End Site
									{
										OFFSET	10.2495	-0.708301	0.731552
									}
								}
							}
						}
					}
				}
			}
		}
	}
	JOINT LeftUpLeg
	{
		OFFSET	-9.64713	-3.53221	-0.711262
		CHANNELS 3  Xrotation Yrotation Zrotation
		JOINT LeftLeg
		{
			OFFSET	-2.16918	-42.5043	-0.664435
			CHANNELS 3  Xrotation Yrotation Zrotation
			JOINT LeftFoot
			{
				OFFSET	-2.12038	-39.0853	3.36133
				CHANNELS 3  Xrotation Yrotation Zrotation
				JOINT LeftToeBase
				{
					OFFSET	0	-4.88516	-12.975
					CHANNELS 3  Xrotation Yrotation Zrotation
					End Site
					{
						OFFSET	0	-1.95406	-7.81626
					}
				}
			}
		}
	}
	JOINT RightUpLeg
	{
		OFFSET	9.64713	-3.53221	-0.711262
		CHANNELS 3  Xrotation Yrotation Zrotation
		JOINT RightLeg
		{
			OFFSET	2.16918	-42.5043	-0.664435
			CHANNELS 3  Xrotation Yrotation Zrotation
			JOINT RightFoot
			{
				OFFSET	2.12038	-39.0853	3.36133
				CHANNELS 3  Xrotation Yrotation Zrotation
				JOINT RightToeBase
				{
					OFFSET	0	-4.88516	-12.975
					CHANNELS 3  Xrotation Yrotation Zrotation
					End Site
					{
						OFFSET	0	-1.95406	-7.81626
					}
				}
			}
		}
	}
}
MOTION
Frames: 20
Frame Time: 0.020409
 0 -10.0543 2.86711 -0 0 -0 -0 0 -0 -0 0 -0 -0 0 -0 -0 0 -0 -0 0 -0 -0 0 -0 -0 0 -0 -0 0 -0 -0 0 -0 -0 0 -0 -0 0 -0 -0 0 -0 -0 0 -0 -0 0 -0 -0 0 -0 -0 0 -0 -0 0 -0 -0 0 -0 -0 0 -0 -0 0 -0 -0 0 -0 -0 0 -0 -0 0 -0
 67.6525 91.6751 -246.497 11.1069 -157.004 7.42139 180 -179.993 177.49 1.09523 -0.0149211 -4.18275 1.91945 -0.0447634 -4.18275 3.20975 -0.00747332 -2.50965 174.581 179.921 179.167 163.501 -176.168 179.405 175.004 -172.958 178.992 0.586327 -16.9358 1.25238 169.607 -178.001 -101.107 170.352 -126.765 170.525 -0 -43.3484 -0.537871 169.269 165.036 -156.553 61.2446 23.9143 -44.0615 174.142 162.736 -176.511 -0 -1.53925 -6.22018 162.347 -139.202 164.85 3.42586 -30.8539 0.630866 7.7865 0.0407251 11.4368 0.597288 0 0 19.7964 13.0924 -14.2652 168.856 -167.425 -179.765 4.31234 0.0190485 0.165935 0.356046 0 0
 67.7894 91.7788 -246.953 11.4351 -157.266 7.16901 180 -179.993 177.541 0.997958 -0.0131692 -4.09757 1.80133 -0.0395076 -4.09757 3.08144 -0.00659539 -2.45854 174.697 179.924 179.184 163.927 -176.123 179.683 175.129 -172.74 179.046 0.640107 -17.4905 1.36966 170.107 -179.155 -101.054 169.825 -127.176 170.131 -0 -44.9815 -0.361061 169.294 165.271 -156.629 60.503 23.6198 -42.4364 173.957 162.724 -176.371 -0 -0.944244 -6.6297 163.725 -138.217 165.801 2.02733 -30.9957 0.497139 8.33773 0.0247042 11.4277 0.631811 0 0 20.3673 13.1293 -13.6723 168.722 -167.253 -179.925 4.05759 0.0264523 -0.153185 0.359468 0 0
 68.0101 91.8065 -247.284 11.4946 -157.421 6.70624 8.20698e-05 0.00195158 -2.40804 0.891874 0.00389703 -4.01339 1.65813 0.0116911 -4.01339 2.89162 0.00195158 -2.40804 174.938 179.929 179.2 164.722 -176.087 -179.956 175.366 -172.496 179.129 0.567303 -18.085 1.21599 170.823 179.74 -101.249 169.299 -127.333 169.719 -0 -46.4653 -0.207872 169.307 165.359 -156.666 59.9582 23.4056 -41.029 173.773 162.649 -176.416 -0 -0.443042 -7.27626 165.03 -137.625 167.047 0.576531 -30.9071 0.528708 11.6202 0.0166771 11.399 0.666276 0 0 20.8821 13.1332 -13.181 168.087 -167.096 179.927 4.19151 -0.0229134 -0.571819 0.367182 0 0
 68.2335 91.8648 -247.838 11.676 -157.928 6.11173 0.000314404 0.00774081 -2.32587 0.753231 0.0154589 -3.87646 1.49769 0.0463768 -3.87646 2.72887 0.00774081 -2.32587 175.055 179.933 179.228 165.191 -176.131 -179.479 175.505 -172.315 179.243 0.558238 -18.8971 1.19922 171.332 178.651 -101.422 168.819 -127.682 169.396 -0 -47.7931 -0.0699935 169.368 165.491 -156.818 59.2986 22.8031 -38.9579 173.378 162.826 -176.176 -0 -0.14439 -7.725 166.855 -136.965 168.592 178.94 -149.087 -179.361 12.6955 -0.0278997 11.4522 0.695874 0 0 21.3225 13.1999 -12.7562 167.605 -166.992 -179.879 4.33832 -0.0652868 -0.910293 0.372095 0 0
 68.5046 92.1075 -248.532 11.4943 -158.319 5.43916 0.000444499 0.0112817 -2.25629 0.469418 0.0225322 -3.76049 1.2068 0.0675966 -3.76049 2.51566 0.0112817 -2.25629 175.015 179.935 179.251 165.352 -176.08 -179.242 175.551 -172.078 179.281 0.785745 -20.1502 1.6932 171.861 177.765 -101.402 168.319 -128.053 168.914 -0 -48.9468 0.119323 169.423 165.016 -156.907 58.9743 22.404 -37.6643 172.999 162.797 -176.08 -0 0.198476 -7.99636 168.536 -136.38 169.971 176.714 -148.931 -179.355 11.707 -0.0644315 11.4763 0.718454 0 0 21.7902 13.2387 -12.2522 167.141 -166.917 -179.714 3.26746 -0.0384149 -1.27075 0.375034 0 0
 68.5775 92.3429 -248.908 11.3206 -158.779 4.92042 0.000264549 0.00694951 -2.18004 0.220631 0.0138811 -3.63341 0.944104 0.0416434 -3.63341 2.31189 0.00694951 -2.18004 175.022 179.937 179.276 165.608 -176.039 -178.731 175.624 -171.693 179.377 0.625223 -21.6488 1.35125 171.948 177.315 -101.245 167.517 -128.245 168.212 -0 -50.0742 0.589387 169.458 164.144 -156.925 58.2313 21.6032 -36.1159 172.408 162.588 -175.857 -0 0.642665 -8.1681 170.141 -136.121 171.219 174.494 -148.842 -179.511 7.90906 -0.0874574 11.471 0.734521 0 0 22.1237 13.306 -11.7427 166.711 -166.854 -179.776 2.39956 -0.00913032 -1.60318 0.378268 0 0
 68.7688 92.6303 -249.708 11.3951 -159.873 4.35439 0.00022903 0.00626819 -2.09257 179.943 179.987 176.512 0.668816 0.0375645 -3.48762 2.13451 0.00626819 -2.09257 174.911 179.938 179.305 165.556 -176.034 -178.176 175.604 -171.347 179.482 0.654374 -23.2879 1.41776 172.424 176.603 -101.104 166.99 -128.522 167.768 -0 -51.0807 0.874011 169.49 163.468 -156.952 57.6939 20.7819 -34.8841 171.907 162.272 -175.593 -0 1.19302 -8.23618 171.695 -136.188 172.538 173.2 -148.715 -179.529 5.31367 -0.121456 11.375 0.752305 0 0 22.6914 13.3578 -11.0747 166.467 -167.01 -179.848 1.24476 0.0338514 -1.96432 0.38098 0 0
 68.8885 92.7947 -250.271 11.2759 -160.423 3.71156 180 -179.998 178.019 179.65 -179.997 176.699 0.375905 -0.00979263 -3.30103 1.94607 -0.00163384 -1.98062 174.798 179.94 179.343 165.508 -176.073 -177.529 175.587 -171.032 179.614 0.599056 -24.4698 1.29954 172.844 175.538 -101.139 166.867 -128.737 167.744 -0 -51.8825 0.826096 169.585 163.422 -157.17 56.6891 19.2988 -33.2533 171.386 162.16 -175.366 -0 1.77185 -8.0295 173.175 -136.529 173.942 172.565 -148.666 -179.527 4.61581 -0.0841182 11.2401 0.783464 0 0 23.2233 13.3924 -10.5015 165.626 -167.212 -179.88 0.729068 0.0300296 -2.38335 0.39169 0 0
 68.9144 92.9224 -250.796 10.9779 -160.86 3.16737 180 -179.998 178.104 179.332 -179.997 176.84 0.0421857 -0.00950281 -3.16016 1.68576 -0.00158535 -1.8961 174.806 179.943 179.371 165.824 -176.214 -176.814 175.683 -170.846 179.79 0.567253 -25.6178 1.23156 173.539 174.405 -101.302 166.907 -128.93 167.907 -0 -52.5171 0.649134 169.927 163.242 -157.948 55.9441 17.7435 -31.8281 170.81 161.305 -174.973 -0 2.63653 -7.62629 174.425 -136.994 175.102 171.726 -148.599 -179.346 4.27568 -0.035275 11.1339 0.819625 0 0 23.6935 13.3875 -10.1056 164.638 -167.394 -179.881 0.282415 0.038439 -2.82779 0.400685 0 0
 68.8918 92.8768 -251.084 10.7364 -161.102 2.6618 0.000112523 0.0036149 -1.7829 179.008 179.993 177.028 179.697 179.978 177.028 1.40402 0.0036149 -1.7829 174.85 179.947 179.408 166.257 -176.248 -176.461 175.814 -170.661 179.876 0.48373 -27.3131 1.05072 173.911 173.671 -101.535 167.064 -129.407 168.204 -0 -52.855 0.517126 170.139 162.833 -158.411 55.3704 16.3381 -30.686 170.234 159.822 -174.725 -0 3.79467 -7.14909 175.459 -138.034 176.137 170.989 -148.824 -179.254 4.69377 -0.050352 11.021 0.854309 0 0 23.9671 13.476 -9.83426 163.788 -167.543 -179.684 0.626541 0.0116148 -3.18579 0.421749 0 0
 69.1007 92.9008 -251.456 10.3537 -162.342 2.11697 0.000300925 0.0105398 -1.63543 178.672 179.979 177.274 179.305 179.937 177.274 1.00609 0.0105398 -1.63543 175.143 179.954 179.457 167.402 -176.484 -175.84 176.165 -170.607 -179.928 0.220232 -28.4911 0.478269 174.083 172.489 -101.814 167.476 -129.225 168.468 -0 -53.4254 0.0255952 170.308 162.683 -158.79 54.9535 14.9864 -29.6522 169.663 158.159 -174.188 -0 4.76537 -6.47791 176.4 -139.813 177.654 170.244 -149.392 -179.406 4.7525 -0.102123 10.8775 0.883347 0 0 24.2332 13.609 -9.58743 163.022 -167.716 -179.792 0.360248 0.0326634 -3.59321 0.43881 0 0
 69.1875 92.9432 -251.658 9.78987 -163.495 1.70492 0.000174353 0.00660063 -1.5131 178.258 179.987 177.478 178.845 179.96 177.478 0.594484 0.00660063 -1.5131 175.323 179.959 179.497 168.291 -176.774 -175.191 176.441 -170.615 -179.723 0.0948991 -28.5929 0.20608 174.212 171.43 -101.964 167.912 -128.569 168.772 -0 -54.1477 -0.602152 170.672 162.417 -159.609 54.545 13.6715 -28.9923 169.128 155.84 -173.625 -0 6.11247 -5.61183 177.368 -141.95 179.545 169.992 -150.256 -179.627 5.47057 -0.00847006 10.6937 0.911845 0 0 24.1977 13.767 -10.0071 162.43 -167.886 -179.729 179.927 179.995 176.065 0.453288 0 0
 69.6091 93.0315 -251.733 9.22638 -164.829 1.33408 0.000189936 0.00747882 -1.4548 177.857 179.985 177.575 178.412 179.955 177.575 0.23323 0.00747882 -1.4548 175.408 179.961 179.517 168.902 -176.979 -174.786 176.631 -170.636 -179.59 0.0932382 -28.2533 0.202494 174.014 169.941 -101.96 168.586 -127.455 169.158 -0 -55.1059 -1.54797 171.015 162.305 -160.383 54.4755 12.165 -28.7092 168.516 153.786 -172.955 -0 7.54134 -4.55179 177.708 -144.39 -179.21 169.512 -151.226 -179.623 5.91552 -0.024184 10.5517 0.941754 0 0 24.1383 14.1825 -10.2254 161.565 -168.074 -179.657 179.679 179.996 175.759 0.465592 0 0
 69.8801 93.1167 -251.642 8.36833 -166.318 1.15275 180 -179.995 178.604 177.348 -179.991 177.673 177.877 -179.972 177.673 179.822 -179.995 178.604 175.406 179.963 179.536 169.378 -177.19 -174.814 176.781 -170.987 -179.544 0.163659 -28.5742 0.355399 173.547 168.561 -101.856 169.254 -126.555 169.511 -0 -55.9044 -2.54379 171.242 162.214 -160.894 53.9411 10.4539 -29.7523 167.864 151.433 -172.23 -0 9.40125 -3.2991 176.82 -146.894 -179.053 168.523 -152.104 -179.697 5.87132 0.0121481 10.4645 0.971896 0 0 23.7752 14.9107 -10.468 160.636 -168.65 -179.832 179.552 -179.974 175.28 0.479032 0 0
 70.0772 93.3933 -251.665 7.39514 -168.327 0.859372 180 -179.997 178.764 176.789 -179.994 177.939 177.304 -179.983 177.939 179.405 -179.997 178.764 175.325 179.966 179.589 169.684 -177.387 -175.356 176.878 -171.715 -179.604 0.172641 -28.5908 0.374904 173.044 166.69 -102.12 169.843 -125.781 169.916 -0 -56.5822 -3.49416 171.178 162.286 -160.754 53.4856 8.57688 -31.4067 167.28 149.338 -171.525 -0 11.2235 -1.9906 176.192 -149.476 -178.496 167.703 -152.9 -179.714 4.86928 -0.0155069 10.4551 0.999017 0 0 23.4009 15.6973 -11.3633 159.738 -169.52 -179.684 178.191 -179.949 174.851 0.489834 0 0
 70.12 93.6356 -251.469 6.47936 -169.883 0.659077 2.21747e-05 0.00117123 -1.08464 176.303 179.998 178.192 176.804 179.993 178.192 179.039 179.999 178.915 175.259 179.97 179.64 169.971 -177.503 -176.124 176.966 -172.47 -179.725 0.323073 -28.5495 0.701596 172.563 164.815 -102.671 170.308 -125.706 170.318 -0 -56.9679 -4.24651 171.085 162.124 -160.533 53.374 6.63976 -32.8458 166.726 147.361 -170.707 -0 13.0666 -0.635363 175.327 -151.847 -178.368 167.043 -153.572 -179.714 3.53514 -0.00700377 10.4802 1.02518 0 0 23.0232 16.4478 -12.0123 158.997 -170.244 -179.618 177.189 -179.936 174.639 0.498429 0 0
 70.0921 93.8164 -251.405 5.85536 -170.924 0.555824 3.98257e-05 0.00240351 -0.949292 175.879 179.995 178.418 176.348 179.986 178.418 178.66 179.998 179.051 175.341 179.974 179.685 170.619 -177.69 -176.901 177.165 -173.354 -179.829 0.522572 -28.5568 1.13487 172.844 163.023 -103.815 170.511 -125.781 170.606 -0 -57.2438 -4.82009 171.013 161.794 -160.354 53.4389 4.34273 -33.8815 166.3 145.802 -170.173 -0 14.8276 0.796365 174.692 -153.843 -178.203 166.638 -154 -179.672 2.32128 -0.0722012 10.5884 1.04972 0 0 22.7236 17.2712 -12.2788 158.386 -171.121 -179.458 176.646 -179.912 174.458 0.505583 0 0
 70.1641 94.1455 -251.521 5.06812 -172.261 0.370605 0.000201694 0.0141441 -0.816978 175.527 179.972 178.638 175.966 179.915 178.638 178.332 179.986 179.183 175.444 179.978 179.729 171.253 -177.866 -177.655 177.359 -174.228 -179.932 0.692442 -28.176 1.504 173.102 161.321 -105.007 170.702 -126.164 170.759 -0 -57.4549 -5.33285 170.99 161.708 -160.297 53.0398 1.69949 -34.9935 165.949 144.653 -169.809 -0 16.5696 2.23046 174.071 -155.316 -178.115 166.178 -161.995 -179.546 1.33201 -0.266999 10.7421 1.07052 0 0 22.3494 18.2771 -12.4014 157.9 -172.067 -179.408 175.403 -179.943 174.296 0.511506 0 0
 70.0802 94.284 -251.642 4.57216 -172.651 0.0819042 0.000107305 0.00880559 -0.698176 175.192 179.982 178.836 175.614 179.947 178.836 178.059 179.991 179.302 175.446 179.982 179.768 171.578 -178.145 -178.073 177.461 -175.06 -179.958 0.785555 -27.7927 1.7064 173.321 159.796 -106.123 170.741 -126.269 170.732 -0 -57.7065 -5.73948 170.99 161.661 -160.296 52.7277 -1.0521 -35.6983 165.572 143.469 -169.33 -0 18.1839 3.73307 174.208 -156.59 -177.902 166.713 -168.554 -179.644 2.58159 -0.187079 10.8319 1.10044 0 0 22.0326 19.1088 -12.2333 157.713 -172.981 -179.72 174.865 -179.92 174.098 0.517246 0 0
